<svg width="89" height="80" viewBox="0 0 89 80" fill="none" xmlns="http://www.w3.org/2000/svg"> <path d="M77.2027 18.9052C77.2099 18.7829 77.2099 18.6607 77.2099 18.5384C77.2099 11.7573 71.6944 6.24899 64.9205 6.24899C63.0796 6.24899 61.289 6.65888 59.6495 7.45708C55.982 2.74697 50.4522 0 44.4261 0C33.9344 0 25.3627 8.36315 25.0175 18.7829C21.5515 20.3434 18.6751 22.853 16.676 25.9308C18.1501 26.6283 19.6962 27.2467 21.2854 27.8076C23.0184 25.4921 25.4274 23.6728 28.311 22.6876L30.0584 22.0908L29.8571 19.4229C29.8571 11.3834 36.3937 4.84674 44.4261 4.84674C49.5461 4.84674 54.1987 7.50742 56.8809 11.9658L58.276 14.2885L60.4261 12.6418C61.7564 11.6279 63.3097 11.0885 64.9205 11.0885C69.0265 11.0885 72.3632 14.4324 72.3632 18.5384C72.3632 19.0418 72.3056 19.5236 72.2193 19.9982L71.831 22.0476L73.7942 22.738C79.6261 24.7874 83.5452 30.2957 83.5452 36.4225C83.5452 44.4548 77.0086 50.9915 68.969 50.9915H58.1825C57.751 52.5735 57.1254 54.1987 56.2481 55.8382H68.969C79.6764 55.8382 88.3919 47.1299 88.3919 36.4225C88.3919 28.8863 83.9695 22.0764 77.2027 18.9052Z" fill="url(#paint0_linear_1_692)"/> <path d="M42.7793 63.0436C28.3182 71.2773 19.6459 78.9933 18.4593 80C18.4593 79.9569 18.5025 79.9568 18.5025 79.9137C18.5528 79.8202 18.6391 79.8202 18.6391 79.7771C19.9551 78.2454 28.2319 68.2139 33.4454 59.8436C34.2364 59.8867 35.0274 59.9299 35.8544 59.9299H36.0773C38.6589 59.9299 41.111 59.1892 43.218 57.7438C48.1654 54.364 50.0494 48.0144 47.7771 42.6211C45.9793 38.5079 42.9088 35.7034 38.7883 34.4306C37.8751 18.8333 52.7245 25.2764 66.2652 17.1218C41.111 32.3308 66.6175 46.044 42.7793 63.0436Z" fill="url(#paint1_linear_1_692)"/> <path d="M34.5384 35.7753C20.5519 34.6319 4.42249 28.2103 1.41759e-05 16.7982C1.41759e-05 16.7982 -0.143807 43.7717 28.5411 50.6175C28.5411 50.6175 17.6971 51.3294 11.5632 45.627C11.5632 45.627 17.165 57.8445 36.0629 57.7582C38.1699 57.751 40.2481 57.1182 41.9883 55.9317C45.9937 53.1847 47.6764 47.9712 45.7564 43.5128C44.1672 39.8382 40.9672 36.3002 34.5384 35.7753Z" fill="url(#paint2_linear_1_692)"/> <defs> <linearGradient id="paint0_linear_1_692" x1="52.5339" y1="0" x2="52.5339" y2="55.8382" gradientUnits="userSpaceOnUse"> <stop stop-color="#2A6BFD"/> <stop offset="1" stop-color="#11CED2"/> </linearGradient> <linearGradient id="paint1_linear_1_692" x1="42.3623" y1="17.1218" x2="42.3623" y2="80" gradientUnits="userSpaceOnUse"> <stop stop-color="#2A6BFD"/> <stop offset="1" stop-color="#11CED2"/> </linearGradient> <linearGradient id="paint2_linear_1_692" x1="23.275" y1="16.7982" x2="23.275" y2="57.7587" gradientUnits="userSpaceOnUse"> <stop stop-color="#2A6BFD"/> <stop offset="1" stop-color="#11CED2"/> </linearGradient> </defs> </svg>